<svg width="1873" height="512" viewBox="0 0 1873 512" fill="none" xmlns="http://www.w3.org/2000/svg">
<g clip-path="url(#clip0_67_33)">
<g clip-path="url(#clip1_67_33)">
<path d="M400 0H112C50.1441 0 0 50.1441 0 112V400C0 461.856 50.1441 512 112 512H400C461.856 512 512 461.856 512 400V112C512 50.1441 461.856 0 400 0Z" fill="#0A0B10"/>
<path d="M112 368L256 128L400 368" stroke="#7B61FF" stroke-width="35.8594" stroke-linecap="round" stroke-linejoin="round"/>
<path d="M256 160C273.673 160 288 145.673 288 128C288 110.327 273.673 96 256 96C238.327 96 224 110.327 224 128C224 145.673 238.327 160 256 160Z" fill="#7B61FF"/>
</g>
<path d="M528.417 496.341V179.068H610.627V219.554H612.692C615.722 211.705 620.128 204.475 625.912 197.865C631.696 191.255 638.856 186.023 647.394 182.167C656.07 178.173 666.122 176.177 677.552 176.177C692.837 176.177 707.296 180.239 720.929 188.364C734.699 196.488 745.922 209.295 754.598 226.783C763.273 244.134 767.611 266.787 767.611 294.741C767.611 321.318 763.48 343.351 755.217 360.839C746.955 378.328 735.939 391.41 722.168 400.085C708.397 408.623 693.25 412.892 676.725 412.892C665.984 412.892 656.345 411.102 647.807 407.521C639.407 403.941 632.247 399.121 626.325 393.062C620.404 386.866 615.86 379.843 612.692 371.993H611.453V496.341H528.417ZM646.155 349.272C653.866 349.272 660.338 347.138 665.571 342.869C670.942 338.462 675.004 332.197 677.758 324.072C680.65 315.81 682.096 306.033 682.096 294.741C682.096 283.311 680.65 273.534 677.758 265.41C675.004 257.147 670.942 250.813 665.571 246.406C660.338 242 653.866 239.796 646.155 239.796C638.581 239.796 632.04 242 626.532 246.406C621.024 250.813 616.755 257.147 613.725 265.41C610.833 273.534 609.387 283.311 609.387 294.741C609.387 305.895 610.833 315.534 613.725 323.659C616.755 331.783 621.024 338.118 626.532 342.662C632.04 347.069 638.581 349.272 646.155 349.272ZM902.286 414.131C877.637 414.131 856.362 409.449 838.46 400.085C820.696 390.584 807.063 376.951 797.562 359.187C788.06 341.423 783.309 320.079 783.309 295.154C783.309 271.331 788.06 250.537 797.562 232.773C807.201 214.872 820.765 200.964 838.253 191.049C855.742 181.134 876.398 176.177 900.221 176.177C917.709 176.177 933.477 178.931 947.523 184.439C961.706 189.809 973.824 197.659 983.877 207.987C993.929 218.177 1001.64 230.57 1007.01 245.167C1012.38 259.764 1015.07 276.288 1015.07 294.741V313.744H808.922V268.301H976.234L937.401 277.803C937.401 268.439 936.024 260.59 933.27 254.255C930.516 247.783 926.454 242.895 921.083 239.59C915.713 236.147 909.034 234.426 901.047 234.426C893.06 234.426 886.381 236.147 881.011 239.59C875.64 242.895 871.578 247.783 868.824 254.255C866.07 260.59 864.693 268.439 864.693 277.803V310.852C864.693 319.941 866.276 327.859 869.444 334.606C872.749 341.354 877.362 346.587 883.283 350.305C889.204 354.023 896.09 355.882 903.939 355.882C909.585 355.882 914.68 355.124 919.224 353.61C923.906 351.957 927.9 349.616 931.204 346.587C934.509 343.557 936.988 339.908 938.641 335.639H1014.24C1011.62 351.613 1005.5 365.521 995.857 377.364C986.355 389.069 973.687 398.157 957.85 404.629C942.152 410.964 923.631 414.131 902.286 414.131ZM1102.65 413.718C1087.91 413.718 1074.83 411.308 1063.4 406.489C1052.11 401.531 1043.3 394.095 1036.96 384.18C1030.63 374.266 1027.46 361.665 1027.46 346.38C1027.46 333.711 1029.59 322.901 1033.86 313.951C1038.13 305 1044.12 297.701 1051.83 292.056C1059.55 286.272 1068.5 281.865 1078.69 278.836C1089.01 275.669 1100.17 273.672 1112.15 272.846C1125.09 271.882 1135.42 270.711 1143.13 269.334C1150.98 267.957 1156.63 265.96 1160.07 263.344C1163.65 260.59 1165.44 257.01 1165.44 252.603V251.777C1165.44 245.855 1163.17 241.311 1158.62 238.144C1154.08 234.839 1148.23 233.187 1141.07 233.187C1133.08 233.187 1126.61 234.908 1121.65 238.35C1116.69 241.793 1113.66 247.095 1112.56 254.255H1036.55C1037.51 240.21 1041.92 227.265 1049.77 215.423C1057.76 203.58 1069.39 194.078 1084.68 186.918C1100.1 179.757 1119.31 176.177 1142.31 176.177C1158.69 176.177 1173.43 178.104 1186.51 181.96C1199.59 185.816 1210.75 191.186 1219.97 198.072C1229.2 204.957 1236.22 213.013 1241.04 222.239C1246 231.328 1248.48 241.173 1248.48 251.777V410H1170.81V377.364H1169.16C1164.48 386.039 1158.83 393.062 1152.22 398.433C1145.75 403.666 1138.38 407.521 1130.12 410C1121.86 412.479 1112.7 413.718 1102.65 413.718ZM1129.5 361.252C1135.83 361.252 1141.76 359.944 1147.26 357.328C1152.91 354.711 1157.45 350.993 1160.9 346.174C1164.48 341.216 1166.27 335.226 1166.27 328.203V309.2C1164.06 310.026 1161.72 310.852 1159.24 311.679C1156.77 312.505 1154.08 313.262 1151.19 313.951C1148.43 314.639 1145.54 315.259 1142.51 315.81C1139.62 316.36 1136.52 316.911 1133.22 317.462C1126.75 318.426 1121.44 320.079 1117.31 322.42C1113.32 324.623 1110.36 327.377 1108.43 330.682C1106.5 333.849 1105.54 337.429 1105.54 341.423C1105.54 347.895 1107.74 352.852 1112.15 356.295C1116.69 359.6 1122.48 361.252 1129.5 361.252ZM1355.06 355.469L1355.89 256.734H1366.63L1422.4 179.068H1515.76L1421.99 300.111H1398.44L1355.06 355.469ZM1280.7 410V102.229H1363.74V410H1280.7ZM1423.23 410L1370.35 318.701L1424.46 259.626L1517.83 410H1423.23ZM1610.37 102.229V410H1527.33V102.229H1610.37ZM1692.99 496.341C1683.49 496.479 1674.4 495.79 1665.72 494.276C1657.05 492.899 1649.47 490.971 1643 488.492L1661.18 429.416L1662.42 429.83C1672.33 433.134 1680.94 434.649 1688.24 434.374C1695.67 434.098 1700.7 430.793 1703.32 424.459L1704.97 420.328L1624 179.068H1710.34L1747.52 338.944H1750L1788.01 179.068H1875.17L1790.9 429.416C1786.77 442.085 1780.71 453.446 1772.72 463.498C1764.87 473.689 1754.47 481.676 1741.53 487.459C1728.59 493.38 1712.41 496.341 1692.99 496.341Z" fill="#7B61FF"/>
</g>
<defs>
<clipPath id="clip0_67_33">
<rect width="1873" height="512" fill="white"/>
</clipPath>
<clipPath id="clip1_67_33">
<rect width="512" height="512" fill="white"/>
</clipPath>
</defs>
</svg>
