<svg width="512" height="512" viewBox="0 0 512 512" fill="none" xmlns="http://www.w3.org/2000/svg">
<g clip-path="url(#clip0_67_40)">
<path d="M400 0H112C50.1441 0 0 50.1441 0 112V400C0 461.856 50.1441 512 112 512H400C461.856 512 512 461.856 512 400V112C512 50.1441 461.856 0 400 0Z" fill="#0A0B10"/>
<path d="M112 368L256 128L400 368" stroke="#7B61FF" stroke-width="35.8594" stroke-linecap="round" stroke-linejoin="round"/>
<path d="M256 160C273.673 160 288 145.673 288 128C288 110.327 273.673 96 256 96C238.327 96 224 110.327 224 128C224 145.673 238.327 160 256 160Z" fill="#7B61FF"/>
</g>
<defs>
<clipPath id="clip0_67_40">
<rect width="512" height="512" fill="white"/>
</clipPath>
</defs>
</svg>
