<svg width="1361" height="512" viewBox="0 0 1361 512" fill="none" xmlns="http://www.w3.org/2000/svg">
<path d="M16.4168 496.341V179.068H98.6268V219.554H100.692C103.722 211.705 108.128 204.475 113.912 197.865C119.696 191.255 126.856 186.023 135.394 182.167C144.07 178.173 154.122 176.177 165.552 176.177C180.837 176.177 195.296 180.239 208.929 188.364C222.699 196.488 233.922 209.295 242.598 226.783C251.273 244.134 255.611 266.787 255.611 294.741C255.611 321.318 251.48 343.351 243.217 360.839C234.955 378.328 223.939 391.41 210.168 400.085C196.397 408.623 181.25 412.892 164.725 412.892C153.984 412.892 144.345 411.102 135.807 407.521C127.407 403.941 120.247 399.121 114.325 393.062C108.404 386.866 103.86 379.843 100.692 371.993H99.453V496.341H16.4168ZM134.155 349.272C141.866 349.272 148.338 347.138 153.571 342.869C158.942 338.462 163.004 332.197 165.758 324.072C168.65 315.81 170.096 306.033 170.096 294.741C170.096 283.311 168.65 273.534 165.758 265.41C163.004 257.147 158.942 250.813 153.571 246.406C148.338 242 141.866 239.796 134.155 239.796C126.581 239.796 120.04 242 114.532 246.406C109.024 250.813 104.755 257.147 101.725 265.41C98.8334 273.534 97.3874 283.311 97.3874 294.741C97.3874 305.895 98.8334 315.534 101.725 323.659C104.755 331.783 109.024 338.118 114.532 342.662C120.04 347.069 126.581 349.272 134.155 349.272ZM390.286 414.131C365.637 414.131 344.362 409.449 326.46 400.085C308.696 390.584 295.063 376.951 285.562 359.187C276.06 341.423 271.309 320.079 271.309 295.154C271.309 271.331 276.06 250.537 285.562 232.773C295.201 214.872 308.765 200.964 326.253 191.049C343.742 181.134 364.398 176.177 388.221 176.177C405.709 176.177 421.477 178.931 435.523 184.439C449.706 189.809 461.824 197.659 471.877 207.987C481.929 218.177 489.641 230.57 495.011 245.167C500.382 259.764 503.067 276.288 503.067 294.741V313.744H296.922V268.301H464.234L425.401 277.803C425.401 268.439 424.024 260.59 421.27 254.255C418.516 247.783 414.454 242.895 409.083 239.59C403.713 236.147 397.034 234.426 389.047 234.426C381.06 234.426 374.381 236.147 369.011 239.59C363.64 242.895 359.578 247.783 356.824 254.255C354.07 260.59 352.693 268.439 352.693 277.803V310.852C352.693 319.941 354.276 327.859 357.444 334.606C360.749 341.354 365.362 346.587 371.283 350.305C377.204 354.023 384.09 355.882 391.939 355.882C397.585 355.882 402.68 355.124 407.224 353.61C411.906 351.957 415.9 349.616 419.204 346.587C422.509 343.557 424.988 339.908 426.641 335.639H502.241C499.624 351.613 493.496 365.521 483.857 377.364C474.355 389.069 461.687 398.157 445.85 404.629C430.152 410.964 411.631 414.131 390.286 414.131ZM590.647 413.718C575.913 413.718 562.831 411.308 551.401 406.489C540.11 401.531 531.296 394.095 524.962 384.18C518.628 374.266 515.46 361.665 515.46 346.38C515.46 333.711 517.595 322.901 521.864 313.951C526.133 305 532.123 297.701 539.834 292.056C547.546 286.272 556.497 281.865 566.687 278.836C577.015 275.669 588.169 273.672 600.149 272.846C613.093 271.882 623.421 270.711 631.133 269.334C638.982 267.957 644.628 265.96 648.07 263.344C651.651 260.59 653.441 257.01 653.441 252.603V251.777C653.441 245.855 651.169 241.311 646.625 238.144C642.08 234.839 636.228 233.187 629.067 233.187C621.08 233.187 614.608 234.908 609.651 238.35C604.693 241.793 601.664 247.095 600.562 254.255H524.549C525.513 240.21 529.919 227.265 537.769 215.423C545.756 203.58 557.392 194.078 572.677 186.918C588.1 179.757 607.31 176.177 630.306 176.177C646.693 176.177 661.428 178.104 674.51 181.96C687.592 185.816 698.746 191.186 707.972 198.072C717.198 204.957 724.221 213.013 729.041 222.239C733.998 231.328 736.477 241.173 736.477 251.777V410H658.811V377.364H657.159C652.477 386.039 646.831 393.062 640.221 398.433C633.749 403.666 626.382 407.521 618.12 410C609.857 412.479 600.7 413.718 590.647 413.718ZM617.5 361.252C623.834 361.252 629.756 359.944 635.264 357.328C640.91 354.711 645.454 350.993 648.897 346.174C652.477 341.216 654.267 335.226 654.267 328.203V309.2C652.064 310.026 649.723 310.852 647.244 311.679C644.766 312.505 642.08 313.262 639.188 313.951C636.434 314.639 633.543 315.259 630.513 315.81C627.621 316.36 624.523 316.911 621.218 317.462C614.746 318.426 609.444 320.079 605.313 322.42C601.32 324.623 598.359 327.377 596.431 330.682C594.503 333.849 593.539 337.429 593.539 341.423C593.539 347.895 595.742 352.852 600.149 356.295C604.693 359.6 610.477 361.252 617.5 361.252ZM843.061 355.469L843.887 256.734H854.628L910.399 179.068H1003.76L909.986 300.111H886.438L843.061 355.469ZM768.7 410V102.229H851.736V410H768.7ZM911.225 410L858.346 318.701L912.464 259.626L1005.83 410H911.225ZM1098.37 102.229V410H1015.33V102.229H1098.37ZM1180.99 496.341C1171.49 496.479 1162.4 495.79 1153.72 494.276C1145.05 492.899 1137.47 490.971 1131 488.492L1149.18 429.416L1150.42 429.83C1160.33 433.134 1168.94 434.649 1176.24 434.374C1183.67 434.098 1188.7 430.793 1191.32 424.459L1192.97 420.328L1112 179.068H1198.34L1235.52 338.944H1238L1276.01 179.068H1363.17L1278.9 429.416C1274.77 442.085 1268.71 453.446 1260.72 463.498C1252.87 473.689 1242.47 481.676 1229.53 487.459C1216.59 493.38 1200.41 496.341 1180.99 496.341Z" fill="black"/>
</svg>
